<svg width="177" height="107" viewBox="0 0 177 107" fill="none" xmlns="http://www.w3.org/2000/svg">
<g opacity="0.85">
<path d="M122.456 93.0136C112.184 93.0136 101.022 91.4871 89.9353 88.5521C76.2245 84.9222 63.6531 79.4437 53.5806 72.7079L53.8788 72.2617C63.9051 78.9645 76.4183 84.4183 90.0726 88.033C102.412 91.2999 114.843 92.8134 126.019 92.4138L126.038 92.9503C124.857 92.9927 123.663 93.0138 122.456 93.0136Z" fill="black"/>
<path d="M120.918 23.2967C117.582 22.2104 114.151 21.1993 110.719 20.2906C90.9729 15.0629 71.5622 13.2071 54.5848 14.926L54.5308 14.3921C71.5714 12.6695 91.0472 14.529 110.857 19.7738C114.298 20.685 117.738 21.6976 121.084 22.7883L120.918 23.2967Z" fill="black"/>
<path d="M30.4337 65.0587C22.2036 56.9563 18.7273 48.5042 20.6456 41.2586C23.1063 31.9605 34.0428 25.5314 50.6487 23.6201L50.7101 24.1536C34.3351 26.0383 23.567 32.3226 21.1658 41.3944C19.2989 48.4458 22.7249 56.7136 30.8114 64.675L30.4337 65.0587Z" fill="black"/>
<path d="M142.053 89.6836L141.881 89.1753C151.068 86.0675 156.814 81.0658 158.498 74.7049C160.639 66.6191 155.988 57.2358 145.404 48.2843C134.765 39.2869 119.424 31.8204 102.205 27.2631L102.341 26.7451C119.635 31.3235 135.051 38.8277 145.749 47.8754C156.501 56.9687 161.214 66.5458 159.016 74.8432C157.285 81.3847 151.419 86.5167 142.053 89.6836Z" fill="black"/>
<path d="M50.7007 91.19C30.5171 82.2366 14.9642 70.6246 6.90723 58.4884L7.35453 58.1924C15.356 70.2454 30.8272 81.7897 50.9179 90.7005L50.7007 91.19Z" fill="black"/>
<path d="M134.777 94.7214C136.684 94.7214 138.23 93.1754 138.23 91.2684C138.23 89.3614 136.684 87.8154 134.777 87.8154C132.87 87.8154 131.324 89.3614 131.324 91.2684C131.324 93.1754 132.87 94.7214 134.777 94.7214Z" fill="#00C7BE"/>
<path d="M60.6257 75.2129L60.5728 75.204C60.6472 75.1579 60.7173 75.1052 60.7822 75.0464L60.6257 75.2129Z" fill="white"/>
<path d="M166.085 22.1318L166.138 22.123C166.064 22.0769 165.994 22.0241 165.929 21.9653L166.085 22.1318Z" fill="white"/>
<path d="M38.5832 7.062L38.5303 7.05313C38.6047 7.00705 38.6748 6.95429 38.7397 6.89551L38.5832 7.062Z" fill="white"/>
<path d="M57.2135 37.0622C57.0104 37.0621 56.8077 37.0463 56.6071 37.0149L34.0723 33.4794C33.5548 33.3982 33.0587 33.2141 32.6133 32.9382C32.168 32.6622 31.7824 32.2999 31.4793 31.8726C31.1761 31.4453 30.9616 30.9617 30.8483 30.4502C30.735 29.9387 30.7252 29.4097 30.8195 28.8943L35.5208 3.21812C35.7016 2.2165 36.2655 1.32472 37.0929 0.732005C37.9204 0.13929 38.9462 -0.107723 39.9527 0.043376L62.1204 3.31099C62.6366 3.38717 63.1324 3.56548 63.5789 3.8355C64.0254 4.10551 64.4135 4.46182 64.7207 4.88359C65.0279 5.30536 65.2479 5.78413 65.3679 6.29191C65.4878 6.7997 65.5054 7.3263 65.4195 7.84095L61.0853 33.7839C60.9293 34.6992 60.4552 35.53 59.7465 36.1298C59.0378 36.7297 58.1401 37.06 57.2116 37.0626L57.2135 37.0622Z" fill="white"/>
<path d="M58.0994 14.4842C58.0296 14.4842 57.96 14.4776 57.8915 14.4646L40.2226 11.1685C39.9288 11.1137 39.6688 10.9444 39.4997 10.6979C39.3307 10.4514 39.2666 10.1478 39.3214 9.85396C39.3762 9.56013 39.5455 9.3001 39.792 9.13109C40.0385 8.96207 40.3421 8.8979 40.6359 8.9527L58.3047 12.2488C58.5807 12.3005 58.8275 12.4532 58.9968 12.6773C59.1661 12.9013 59.2456 13.1804 59.22 13.46C59.1943 13.7396 59.0652 13.9996 58.8579 14.189C58.6507 14.3784 58.3802 14.4837 58.0994 14.4842Z" fill="black"/>
<path d="M56.4328 20.3824C56.3814 20.3825 56.3299 20.379 56.2789 20.372L39.3389 18.0652C39.0444 18.0229 38.7786 17.8659 38.5994 17.6284C38.4202 17.3909 38.3422 17.0922 38.3824 16.7975C38.4226 16.5027 38.5777 16.2357 38.814 16.0549C39.0502 15.874 39.3483 15.7939 39.6434 15.832L56.5834 18.1388C56.8668 18.1768 57.1252 18.3212 57.3062 18.5426C57.4872 18.764 57.5773 19.0459 57.5581 19.3312C57.539 19.6166 57.4121 19.884 57.2031 20.0792C56.9942 20.2744 56.7188 20.3829 56.4328 20.3827V20.3824Z" fill="black"/>
<path d="M49.6325 26.4372C49.5718 26.4371 49.5112 26.4321 49.4512 26.4224L38.002 24.5696C37.8559 24.5459 37.7159 24.4937 37.59 24.416C37.4641 24.3382 37.3547 24.2364 37.2681 24.1164C37.0933 23.8739 37.0219 23.572 37.0697 23.2769C37.1175 22.9819 37.2805 22.7179 37.5229 22.543C37.7654 22.3682 38.0673 22.2968 38.3624 22.3446L49.8116 24.1974C50.0908 24.2431 50.3426 24.3921 50.5171 24.6148C50.6915 24.8376 50.7758 25.1177 50.7533 25.3998C50.7307 25.6818 50.603 25.945 50.3953 26.1372C50.1877 26.3294 49.9154 26.4365 49.6325 26.4372Z" fill="black"/>
<path d="M51.8561 106.295C50.9437 106.292 50.0608 105.972 49.3587 105.389C48.6566 104.807 48.1792 103.998 48.0083 103.102L43.1317 77.4601C42.9376 76.4603 43.1414 75.4241 43.6996 74.5722C44.2579 73.7202 45.1265 73.1197 46.1207 72.8984L67.9747 67.9481C68.4836 67.8328 69.0103 67.8201 69.5241 67.9108C70.0379 68.0014 70.5285 68.1936 70.9672 68.4761C71.4058 68.7586 71.7838 69.1257 72.0789 69.5559C72.374 69.9862 72.5804 70.471 72.686 70.9819L78.0032 96.741C78.2089 97.7536 78.0084 98.8066 77.4448 99.6727C76.8812 100.539 75.9997 101.149 74.9905 101.371L52.6974 106.204C52.421 106.264 52.1389 106.295 51.8561 106.295Z" fill="white"/>
<path d="M50.1764 83.1967C49.8956 83.1963 49.6251 83.0911 49.4178 82.9017C49.2104 82.7123 49.0813 82.4523 49.0555 82.1727C49.0298 81.8931 49.1094 81.6139 49.2786 81.3898C49.4479 81.1658 49.6947 81.013 49.9707 80.9613L67.6385 77.6608C67.784 77.6336 67.9334 77.6353 68.0782 77.6659C68.223 77.6965 68.3604 77.7552 68.4825 77.8389C68.6046 77.9226 68.709 78.0294 68.7898 78.1534C68.8706 78.2775 68.9262 78.4162 68.9534 78.5617C68.9805 78.7072 68.9788 78.8566 68.9482 79.0014C68.9177 79.1462 68.8589 79.2836 68.7752 79.4057C68.6916 79.5278 68.5847 79.6322 68.4607 79.713C68.3367 79.7938 68.198 79.8494 68.0525 79.8766L50.3851 83.1775C50.3164 83.1905 50.2467 83.197 50.1768 83.1971L50.1764 83.1967Z" fill="black"/>
<path d="M51.7856 89.9595C51.5096 89.9589 51.2434 89.8571 51.0375 89.6733C50.8315 89.4896 50.7001 89.2367 50.6682 88.9625C50.6363 88.6884 50.706 88.4121 50.8643 88.1859C51.0225 87.9598 51.2582 87.7995 51.5266 87.7355L68.1581 83.7768C68.3028 83.7407 68.4532 83.7335 68.6006 83.7559C68.748 83.7783 68.8895 83.8297 69.017 83.9071C69.1444 83.9845 69.2552 84.0865 69.3429 84.2071C69.4307 84.3276 69.4936 84.4644 69.5282 84.6094C69.5627 84.7545 69.5681 84.905 69.5441 85.0521C69.52 85.1993 69.4671 85.3402 69.3882 85.4668C69.3093 85.5933 69.2061 85.703 69.0846 85.7893C68.963 85.8757 68.8256 85.9371 68.6801 85.97L52.0487 89.9288C51.9629 89.9491 51.8749 89.9594 51.7867 89.9595H51.7856Z" fill="black"/>
<path d="M52.9141 96.502C52.6358 96.5014 52.3676 96.3978 52.1612 96.2112C51.9547 96.0247 51.8245 95.7683 51.7956 95.4916C51.7668 95.2148 51.8413 94.9371 52.0049 94.712C52.1685 94.4869 52.4096 94.3302 52.6818 94.2722L64.0281 91.8692C64.3206 91.8072 64.6256 91.864 64.8762 92.0269C65.1268 92.1899 65.3023 92.4457 65.3643 92.7381C65.4263 93.0305 65.3695 93.3356 65.2066 93.5861C65.0436 93.8367 64.7878 94.0123 64.4954 94.0743L53.1491 96.4772C53.0718 96.4936 52.9931 96.502 52.9141 96.502Z" fill="black"/>
<path d="M169.063 65.6986C169.732 65.6964 170.38 65.4625 170.897 65.0366C171.413 64.6107 171.766 64.019 171.896 63.3622L176.947 37.3079C177.027 36.8953 177.016 36.4702 176.915 36.0624C176.813 35.6545 176.624 35.2738 176.36 34.9467C176.096 34.6196 175.764 34.3542 175.387 34.1689C175.01 33.9835 174.597 33.8828 174.176 33.8738L149.767 33.3492C149.084 33.3308 148.416 33.5573 147.885 33.9878C147.354 34.4183 146.994 35.0245 146.87 35.697L142.083 60.9637C142.006 61.3677 142.017 61.7834 142.114 62.183C142.211 62.5825 142.393 62.9567 142.647 63.2803C142.9 63.604 143.22 63.8697 143.585 64.0597C143.949 64.2497 144.351 64.3595 144.761 64.3819L168.907 65.6942C168.959 65.6971 169.011 65.6986 169.063 65.6986Z" fill="#FFCC00"/>
<path d="M166.445 49.1058C166.376 49.5933 166.264 50.0737 166.11 50.5412C165.867 51.1322 165.546 51.6884 165.157 52.195C164.409 53.1734 163.712 53.4797 163.039 54.4454C162.939 54.5027 162.837 54.5527 162.733 54.6011C162.526 54.6969 162.422 55.2919 162.206 55.3666C162.206 55.3666 162.203 55.3662 162.202 55.369C162.125 55.4656 162.073 55.5792 162.049 55.7003L162.049 55.7032C161.864 56.2832 161.606 57.4795 161.405 58.1804C161.379 58.265 161.355 58.3428 161.331 58.4108C161.27 58.5953 161.218 58.7113 161.176 58.7203C160.659 58.8409 160.487 58.5522 159.94 58.5467C159.647 58.5446 158.143 58.5739 157.844 58.5318C156.994 58.4125 156.575 58.0584 155.932 57.6515C155.886 57.6239 155.842 57.5955 155.794 57.5664C155.776 57.5568 155.762 57.5466 155.745 57.5371C155.56 57.4259 155.67 55.2889 155.596 54.4642C155.596 54.4635 155.596 54.4628 155.596 54.4621C155.596 54.4614 155.597 54.4608 155.597 54.4602C155.582 54.2888 155.559 54.1749 155.523 54.1476L155.497 54.127C155.384 54.0399 155.276 53.9466 155.17 53.8503C154.629 52.5734 153.421 51.2615 153.003 49.3351C152.905 48.6322 152.904 47.9193 152.999 47.2161C153.111 46.323 153.399 45.4612 153.848 44.6806C154.296 43.9001 154.895 43.2164 155.61 42.6695C156.324 42.1225 157.141 41.7231 158.011 41.4945C158.882 41.266 159.789 41.2128 160.681 41.338C161.572 41.4633 162.43 41.7645 163.203 42.2242C163.977 42.6839 164.652 43.2928 165.188 44.0157C165.725 44.7385 166.112 45.5607 166.328 46.4346C166.543 47.3084 166.583 48.2164 166.445 49.1058Z" fill="white"/>
<path d="M166.112 50.543C165.869 51.1337 165.548 51.6896 165.159 52.196C164.411 53.1745 163.714 53.4808 163.041 54.4464C162.42 55.4296 161.973 56.5125 161.721 57.6476C161.695 57.7434 161.705 57.858 161.678 57.9521C161.617 58.1602 161.66 58.1275 161.504 58.3013C161.44 58.326 161.411 58.2744 161.404 58.1815C161.406 57.9488 161.436 57.7172 161.493 57.4916C161.617 56.8784 161.803 56.2795 162.049 55.7043L162.05 55.7014C162.099 55.5866 162.151 55.4762 162.202 55.3701C163.109 53.5246 164.404 52.8126 165.077 51.8745C168.613 46.9585 164.291 40.309 158.323 41.5719C158.003 41.639 158.01 41.7069 157.993 41.7123C157.559 41.7944 157.135 41.9223 156.728 42.0938C153.971 43.4519 152.592 46.7129 153.335 49.6652C153.737 51.2625 154.904 52.2956 155.496 54.1296C155.531 54.2361 155.564 54.3471 155.596 54.4627C155.596 54.4633 155.596 54.4639 155.595 54.4646C155.595 54.4653 155.595 54.466 155.596 54.4667C155.853 55.4797 155.92 56.5316 155.795 57.5691C155.792 57.5878 155.793 57.6062 155.79 57.623C155.839 57.634 155.887 57.6437 155.933 57.6543C156.652 57.8197 157.108 58.0029 157.37 57.9108L157.635 57.9761C157.707 58.1132 159.227 58.1718 159.467 58.2026L159.528 58.2111C160.124 58.3105 160.726 58.3777 161.33 58.4124C161.361 58.4138 161.393 58.4141 161.424 58.4144C161.462 58.4291 161.494 58.4581 161.512 58.4954C161.53 58.5326 161.533 58.5753 161.52 58.6148C161.432 58.8812 161.269 59.1168 161.051 59.2935C160.747 59.4184 156.152 58.8582 155.758 58.4878C155.642 58.3806 155.567 58.2375 155.544 58.082C155.521 57.9264 155.551 57.7676 155.63 57.6315C155.628 57.5919 155.474 57.4602 155.473 57.4226C155.456 56.944 155.72 55.7742 155.345 54.3597C155.3 54.1862 155.242 54.0162 155.171 53.8511C154.629 52.5745 153.421 51.2626 153.004 49.3348C152.789 48.3015 152.813 47.2327 153.075 46.2102C153.681 43.6644 156.262 41.4388 158.85 41.1487C160.038 41.0038 161.244 41.1703 162.349 41.6318C163.453 42.0933 164.419 42.834 165.151 43.7813C165.884 44.7285 166.357 45.8498 166.526 47.0352C166.694 48.2205 166.551 49.4293 166.112 50.543Z" fill="black"/>
<path d="M161.1 59.4443C161.477 59.919 161.225 60.0263 160.955 60.4804C160.706 60.3868 156.293 60.0515 155.716 59.7441C155.624 59.691 155.547 59.6154 155.492 59.5244C155.437 59.4334 155.406 59.33 155.402 59.2238C155.398 59.1177 155.422 59.0123 155.47 58.9175C155.518 58.8227 155.589 58.7417 155.677 58.682C157.45 59.1364 159.269 59.392 161.099 59.4441L161.1 59.4443Z" fill="black"/>
<path d="M161.173 60.6977C161.29 61.1024 160.93 61.2898 160.739 61.569L160.426 61.587L155.62 60.8494C155.338 60.7528 155.212 60.321 155.173 60.0409C155.173 60.004 155.184 59.9679 155.205 59.9374C155.226 59.907 155.256 59.8837 155.29 59.8706L155.705 59.8049C157.278 60.1573 158.869 60.4225 160.472 60.5992C160.587 60.5522 160.712 60.5365 160.835 60.5538C160.959 60.5711 161.075 60.6208 161.173 60.6977Z" fill="black"/>
<path d="M157.922 55.1844L157.794 55.1664L158.084 53.1041L156.449 47.8483L156.571 47.8105L158.216 53.0913L157.922 55.1844Z" fill="black"/>
<path d="M161.139 37.8276C161.42 37.6881 161.137 39.7476 161.048 39.8035C160.711 40.0147 161.044 37.8744 161.139 37.8276Z" fill="white"/>
<path d="M159.041 37.7197C159.263 37.6175 159.456 39.6326 159.412 39.7291C159.159 40.2791 158.938 37.7676 159.041 37.7197Z" fill="white"/>
<path d="M163.185 38.3C163.436 38.2703 162.763 40.1087 162.702 40.1899C162.129 40.9585 163.049 38.3183 163.185 38.3Z" fill="white"/>
<path d="M159.886 55.4635L160.105 53.1558L160.108 53.1473L162.057 48.2437L162.176 48.291L160.23 53.1861L160.013 55.4757L159.886 55.4635Z" fill="black"/>
<path d="M126.966 28.3859C128.873 28.3859 130.419 26.84 130.419 24.9329C130.419 23.0259 128.873 21.48 126.966 21.48C125.059 21.48 123.513 23.0259 123.513 24.9329C123.513 26.84 125.059 28.3859 126.966 28.3859Z" fill="#00C7BE"/>
<path d="M97.4105 29.3303C99.3175 29.3303 100.863 27.7843 100.863 25.8773C100.863 23.9703 99.3175 22.4243 97.4105 22.4243C95.5035 22.4243 93.9575 23.9703 93.9575 25.8773C93.9575 27.7843 95.5035 29.3303 97.4105 29.3303Z" fill="#AF52DE"/>
<path d="M34.8451 71.3024C36.7521 71.3024 38.298 69.7565 38.298 67.8495C38.298 65.9424 36.7521 64.3965 34.8451 64.3965C32.938 64.3965 31.3921 65.9424 31.3921 67.8495C31.3921 69.7565 32.938 71.3024 34.8451 71.3024Z" fill="#AF52DE"/>
<path d="M3.45297 57.2717C5.35999 57.2717 6.90594 55.7257 6.90594 53.8187C6.90594 51.9117 5.35999 50.3657 3.45297 50.3657C1.54595 50.3657 0 51.9117 0 53.8187C0 55.7257 1.54595 57.2717 3.45297 57.2717Z" fill="#00C7BE"/>
</g>
</svg>
