<?xml version="1.0" encoding="utf-8" ?><svg xmlns="http://www.w3.org/2000/svg" xmlns:xlink="http://www.w3.org/1999/xlink" width="832" height="396" viewBox="0 538 832 396">
<style>
  .c-shadow    { fill: var(--c-shadow,    #262526); }
  .c-dark      { fill: var(--c-dark,      #454347); }
  .c-mid       { fill: var(--c-mid,       #717174); }
  .c-mid-light { fill: var(--c-mid-light, #8B898A); }
  .c-paper     { fill: var(--c-paper,     #E9E8E9); }
</style>

<path class="c-dark" d="M95.6605 585.777C103.891 592.439 108.394 595.456 118.562 599.217C121.248 593.723 121.922 592.329 128.172 594.27C154.264 602.374 180.41 610.306 206.424 618.658C220.547 623.193 239.504 628.074 253.879 633.323C256.08 634.127 257.164 639.265 257.511 641.716C257.723 643.238 257.919 644.762 258.1 646.288C262.688 647.264 265.368 648.057 270.038 647.078C280.529 644.879 291.237 639.551 301.094 635.346C317.168 628.487 332.746 621.47 348.366 613.695C356.376 609.707 370.176 602.274 378.336 600.608C383.365 599.582 401.471 600.681 407.125 601.396C424.783 602.051 442.391 602.263 460.031 603.417C477.268 604.827 488.712 605.502 497.954 622.451C520.798 630.453 540.034 634.149 561.831 645.409C577.231 644.004 599.988 639.114 615.863 636.311C621.198 611.23 646.73 605.021 661.7 625.78L661.885 627.121C663.147 627.434 663.77 627.691 665.073 627.505L665.594 626.942C670.301 620.679 669.414 614.281 679.492 612.864C715.552 626.549 735.683 708.716 734.314 743.521C733.939 753.066 731.766 763.696 729.865 773.067C727.55 777.991 724.321 785.023 717.787 784.996C707.113 784.952 704.156 770.316 698.905 765.164C698.472 766.537 699.022 767.596 699.469 769.025C698.965 769.953 698.543 770.746 697.958 771.635C695.528 781.45 692.413 794.357 683.073 799.522C663.368 810.418 650.02 790.597 643.394 775.467C612.777 783.694 610.794 791.156 588.768 810.509C593.513 819.806 594.428 829.531 591.22 839.454C584.775 859.388 564.062 861.827 555.255 842.039C554.28 844.117 553.488 846.122 552.061 847.905C553.395 850.691 555.013 854.075 555.54 857.136C557.688 869.616 546.734 884.596 534.314 886.628C526.318 887.936 520.166 882.218 514.113 877.747C517.104 892.093 512.129 904.151 497.184 909.378C487.534 912.753 477.338 908.096 468.76 903.491C468.947 915 464.553 922.222 453.312 926.165C431.663 933.761 410.632 914.809 391.999 906.317C390.524 910.983 389.884 913.203 386.073 916.458C382.163 919.845 377.04 921.493 371.888 921.021C367.606 920.634 363.669 918.51 360.996 915.143C357.8 911.089 357.014 906.804 357.668 901.84C355.836 903.716 354.101 905.506 352.11 907.154C339.839 917.314 320.253 913.197 317.502 896.237C316.957 892.875 317.451 890.303 317.911 886.968C309.789 892.584 300.239 897.825 290.525 893.23C275.437 886.094 277.399 873.287 282.689 860.907C275.456 865.382 271.234 871.886 261.804 872.661C251.465 873.51 244.131 865.442 243.38 855.485C242.865 848.673 244.99 843.088 249.512 837.93C238.824 830.595 224.291 820.539 213.925 812.81C207.385 822.934 202.028 827.376 191.997 833.454C191.036 837.985 189.132 851.929 185.128 853.396C177.754 852.698 168.563 843.982 161.426 842.286C156.903 841.242 150.186 841.553 145.943 840.179C117.71 831.039 88.3699 825.149 60.2637 816.029C58.8685 815.577 58.9519 813.348 58.7885 812.084C54.3788 810.81 38.5149 810.604 33.1217 810.424C22.0775 810.074 11.0365 809.629 0 809.089L0 805.492C18.4319 807.639 41.1283 807.668 59.9292 808.86C61.6541 805.041 63.3587 801.213 65.0429 797.376C55.0527 798.897 32.5866 799.15 22.7092 798.058C22.1549 798.692 62.1839 794.647 66.563 793.67C71.719 781.639 76.4085 769.243 81.5929 757.117C71.758 754.012 62.0295 752.462 52.089 750.066C34.9683 745.939 16.9308 742.256 0 737.598L0 734.096C14.178 738.417 30.9796 742.029 45.5482 745.422C59.7432 748.728 68.2965 749.332 81.9936 754.665C86.6488 742.78 90.9594 730.297 95.2241 718.261C76.1832 700.727 57.5453 683.6 32.4759 676.26C21.7423 673.117 10.4773 670.417 0 666.872L0 663.585C8.15915 666.355 18.9088 668.942 27.4361 671.32C57.9115 679.818 73.7674 693.662 96.314 714.967C109.061 674.96 116.46 645.605 122.145 603.658C119.581 602.407 114.724 600.691 111.837 599.461C104.134 596.179 100.417 593.187 93.8745 588.126L93.3403 587.909L93.0645 587.203L95.6605 585.777ZM286.795 858.305C293.382 854.459 299.401 852.207 307.164 854.254C312.883 855.784 317.737 859.568 320.615 864.74C323.434 869.733 323.425 872.472 323.565 878.116C340.284 863.641 360.391 868.071 363.035 891.614C368.108 890.666 370.861 888.969 376.378 889.144C384.693 889.407 391.128 894.054 391.753 902.883C400.463 906.996 410.029 912.281 418.465 917C438.138 928.003 462.237 930.731 466.571 902.816C453.02 895.902 442.229 889.148 429.41 880.955C425.638 878.545 416.151 874.834 413.808 872.71L414.125 871.848C417.877 873.936 421.828 875.579 425.76 877.302C421.888 874.313 419.044 872.848 414.777 870.508C408.593 868.218 402.313 868.967 395.909 869.498C414.423 860.616 422.242 872.284 437.163 881.659C451.19 890.473 465.894 899.775 481.069 905.581C497.61 911.909 511.741 900.637 511.753 883.987C510.522 874.848 496.209 865.779 489.262 861.725C471.907 851.596 457.208 838.637 441.067 827.354C439.072 827.223 438.136 827.325 436.405 826.371L437.014 825.747C440.407 825.267 444.144 825.019 447.431 826.223C461.884 828.919 508.279 871.053 522.352 879.582C535.934 887.814 541.135 882.342 549.658 870.679C555.444 862.761 552.353 854.296 547.992 846.583C531.531 817.498 498.533 802.984 475.938 779.562C473.851 777.398 469.809 763.287 471.36 760.874C474.129 764.552 474.438 772.79 477.777 774.908C497.445 787.38 516.532 800.838 535.201 814.769C540.688 819.929 548.025 826.707 552.203 833.087C559.335 843.979 571.88 864.201 584.902 845.358C597.2 827.561 584.057 805.406 572.721 790.716C564.51 780.076 556.302 770.145 545.01 762.229C540.56 758.939 535.527 754.463 531.258 750.807C521.589 742.681 511.991 734.471 502.463 726.179C493.411 718.268 481.803 707.518 471.829 701.243C457.986 692.535 440.055 684.552 424.755 678.896C417.547 680.822 411.238 681.678 403.827 680.85C400.503 686.313 396.321 691.973 391.618 696.504C376.789 711.314 341.817 727.441 323.851 710.859C312.371 696.751 337.501 683.632 344.622 672.952C350.354 664.355 359.479 645.068 365.206 640.197C367.697 638.115 370.528 636.476 373.575 635.353C378.241 633.606 392.67 630.287 398.783 628.631C416.02 623.962 438.604 614.113 455.33 611.288C460.628 610.393 486.297 619.937 492.983 620.432C490.795 614.733 476.323 605.824 470.375 607.146L470.829 608.315L470.376 608.836C467.466 606.683 466.982 606.179 463.425 606.219L465.34 609.027L465.095 609.515C463.317 607.877 460.561 605.101 457.907 606.02L459.27 608.405L458.544 608.655C457.749 607.772 456.183 605.912 455.034 605.802C449.2 605.241 442.648 605.208 436.811 605.04C426.365 604.731 415.927 604.198 405.503 603.442C399.538 603.192 384.235 602.039 379.04 603.4C368.566 606.313 358.615 612.143 348.87 616.832C333.969 624.003 318.848 631.314 303.531 637.528C288.607 643.583 274.755 652.748 258.348 649.28C259.238 692.214 239.153 773.381 215.524 810.047C235.436 821.828 253.96 839.792 274.663 850.912C278.206 852.815 283.473 856.009 286.795 858.305ZM366.898 643.103C365.27 644.909 348.841 672.055 348.349 673.704C349.543 674.013 350.682 674.307 351.891 674.571C350.034 674.695 348.663 674.415 347.596 675.465L347.507 675.917C343.207 680.1 325.858 695.858 324.442 699.527C324.995 700.238 324.723 700.169 325.371 700.378C324.449 701.525 324.55 701.076 324.257 702.365C322.947 705.845 326.888 709.726 329.681 711.137C353.808 723.328 389.303 700.891 400.617 679.105C402.428 675.619 404.517 671.671 403.244 667.828L402.116 664.495L402.545 663.783C407.054 667.452 406.374 673.472 404.806 678.359C417.207 677.385 427.227 676.392 438.283 669.86L439.057 672.087C440.675 672.049 443.153 671.498 444.826 671.195L445.811 673.404L444.789 673.956L445.695 675.103C452.98 675.433 456.398 674.752 463.367 673.255L464.485 674.639C459.474 676.219 454.749 677.935 449.437 677.449L449.473 678.242L448.511 679.398C439.607 675.585 438.869 674.678 429.661 677.228L448.476 684.605C450.544 685.592 459.721 690.428 460.645 690.754L461.135 690.346L461.552 690.579C462.76 691.239 463.123 691.585 464.493 691.453C471.838 697.403 479.451 702.84 486.893 708.809C498.182 717.864 506.533 728.552 520.43 733.207L518.909 733.881L518.904 735.368C521.525 737.9 524.202 740.375 526.931 742.79C529.603 742.981 531.782 743.035 534.369 743.77C533.98 744.373 533.662 744.732 533.449 745.384L530.767 745.343C531.171 746.718 558.092 768.617 561.718 772.412C572.779 783.989 580.174 793.617 587.335 807.961C597.637 798.119 606.285 791.882 614.695 780.433L616.496 781.807C619.232 781.265 632.381 775.329 637.073 774.056C651.488 770.147 665.379 767.374 680.002 764.616C680.528 755.112 680.88 743.495 679.991 734.053C677.164 704.042 665.046 657.54 645.74 634.008C636.242 635.367 625.967 637.846 616.301 639.425L581.76 645.248C577.703 645.919 568.211 647.016 564.985 648.261L562.621 648.993C544.305 638.59 519.921 633.105 499.896 626.254C486.939 621.821 473.242 617.246 459.813 614.795C455.708 614.171 451.945 614.137 447.993 615.454C425.796 622.851 403.851 630.94 381.048 636.411C385.65 638.488 387.471 639.993 390.858 643.749L390.636 644.116C386.3 641.738 383.209 639.152 379.031 636.876C375.568 638.132 371.681 639.347 368.617 641.321L368.322 642.095C372.205 642.398 379.655 645.853 382.181 648.751L382.109 649.321C375.456 645.82 374.421 644.168 366.898 643.103ZM62.0977 813.327C67.1526 815.439 70.9901 816.811 76.437 817.516L77.4844 816.854L78.1757 817.518L79.0058 818.311C96.1629 822.96 113.391 827.281 130.474 832.214C138.581 834.501 147.762 837.838 156.132 838.449C168.533 839.354 185.883 834.271 196.378 827.161C208.618 818.869 218.788 798.469 224.278 785.433C229.452 773.054 234.048 760.441 238.051 747.636C242.404 733.357 266.775 640.175 249.807 634.858C214.047 623.652 174.632 612.692 138.997 600.62L137.157 600.267C132.879 598.995 129.181 597.738 124.991 596.246C125.525 653.184 86.0275 760.499 62.0977 813.327ZM550.159 844.429C551.708 842.059 552.677 840.654 552.07 837.788C534.251 815.254 512.897 801.491 488.831 785.902L488.321 786.251C503.136 799.888 543.776 825.555 550.159 844.429ZM665.665 630.064C692.043 671.43 700.44 713.103 699.597 761.901L706.552 760.705C713.537 759.707 723.305 758.4 730.153 756.972C730.786 747.668 731.419 737.88 730.518 728.301C727.293 694.02 716.088 653.855 693.905 626.813C693.121 625.857 692.464 625.351 691.476 624.678L690.404 624.774C682.115 626.333 673.866 628.096 665.665 630.064ZM721.009 772.208C722.486 773.565 723.963 774.963 725.503 776.243C726.591 773.206 730.018 762.885 729.319 760.293C724.255 760.68 720.324 761.496 715.349 762.465C717.369 766.643 718.212 768.367 721.009 772.208ZM637.023 616.751C639.987 618.345 641.573 619.464 644.317 621.45L643.087 622.211C636.357 617.583 631.291 616.85 624.948 622.898C621.936 627.209 620.42 628.797 619.554 633.922L619.872 634.539C622.51 630.803 623.077 627.924 626.074 624.459C636.901 617.212 647.028 628.972 652.339 637.62C673.13 671.478 684.239 715.307 683.816 754.855C682.188 771.814 676.464 818.033 653.215 784.486C651.876 782.555 648.644 775.766 647.147 774.831L646.428 775.596C650.546 784.573 661.706 804.791 673.759 796.965L675.529 798.193L675.932 798.856C679.686 798.098 682.509 797.427 685.279 794.61C694.751 784.978 697.575 760.046 697.219 746.916C696.188 708.857 683.966 653.069 656.749 624.515C650.308 617.757 645.468 616.638 637.023 616.751ZM669.039 626.122L674.285 625.003C677.87 624.3 683.187 623.081 683.257 618.345C681.585 615.735 680.246 616.026 677.194 615.976C672.81 619.264 671.717 621.288 669.039 626.122ZM314.129 885.743C316.984 883.353 319.753 880.872 319.927 876.797C320.728 858.002 300.269 850.481 287.198 862.595C277.399 871.678 280.614 884.727 291.751 890.728C293.059 891.462 294.505 891.917 295.998 892.063C302.374 892.674 309.296 889.82 314.129 885.743ZM628.911 634.218L635 632.837C635.701 630.717 636.99 628.011 636.324 626.115C634.825 624.825 633.263 624.911 631.218 624.665C628.236 626.144 625.112 629.1 623.91 632.192L624.063 633.854C625.523 635.035 626.532 634.452 628.911 634.218ZM279.739 858.145C270.88 852.672 260.12 846.346 251.976 840.045C240.23 858.421 251.249 878.352 271.615 865.617C275.162 862.813 276.689 861.615 279.739 858.145ZM649.889 774.212C654.274 782.237 656.541 787.749 664.296 792.777C667.863 793.718 671.287 793.528 673.204 789.959C672.871 788.718 667.995 784.782 666.793 782.345C666.333 781.413 660.583 771.693 660.733 771.809C657.25 772.563 653.301 773.32 649.889 774.212ZM187.106 835.469C180.013 838.857 175.535 840.143 167.703 841.24L175.256 845.14C178.34 846.675 181.83 848.314 184.809 849.977C185.308 847.181 187.926 836.764 187.106 835.469ZM674.669 786.886C676.871 780.916 678.751 775.35 679.564 768.991C679.432 768.769 679.157 768.208 678.983 768.122C673.547 768.604 668.931 769.868 663.646 771.161C665.93 775.743 667.072 778.09 670.1 782.298C671.576 783.794 673.148 785.462 674.669 786.886ZM710.145 763.163L702.028 764.366C705.356 771.651 708.795 779.29 716.56 782.792C719.383 782.433 722.073 782.09 723.6 779.376C723.246 777.334 720.835 776.138 719.521 774.331C717.06 770.944 714.789 766.784 712.704 763.148C711.372 762.89 711.452 762.851 710.145 763.163ZM369.935 892.251C361.748 895.71 357.308 901.991 361.61 910.762C363.221 914.127 366.144 916.683 369.695 917.83C372.099 918.613 374.702 918.491 377.137 917.938C395.461 910.3 391.629 889.822 369.935 892.251ZM341.708 872.816C312.64 876.845 314.909 911.072 339.123 909.833C368.549 901.74 362.655 871.936 341.708 872.816Z"/>
<path class="c-shadow" fill-opacity="0.95294118" d="M494.1 876.137L494.522 876.567C496.3 885.043 482.219 893.205 477.047 897.514C484.197 894.927 492.38 890.319 496.22 883.408C497.05 881.914 497.675 878.623 498.867 877.685L499.184 878.362C497.836 885.816 483.875 902.155 477.524 896.666C480.116 891.385 489.975 890.165 494.1 876.137Z"/>
<path class="c-shadow" fill-opacity="0.97647059" d="M539.338 844.289L539.936 845.85C538.526 858.749 529.404 866.434 516.71 867.673L516.649 867.02C529.46 862.915 536.325 858.345 539.338 844.289Z"/>
<path class="c-shadow" fill-opacity="0.96078432" d="M557.795 779.122C560.594 785.282 555.711 798.016 550.829 802.329C547.815 804.992 546.166 805.602 542.352 806.515C542.667 805.047 557.204 799.19 557.795 779.122Z"/>
<path class="c-mid" fill-opacity="0.97254902" d="M415.727 786.463C416.109 786.746 416.211 786.788 416.507 787.141C424.087 796.197 432.076 796.322 443.436 794.129L444.25 794.755C435.521 800.056 420.013 796.563 415.727 786.463Z"/>
<path class="c-dark" fill-opacity="0.92941177" d="M532.936 835.932L533.61 837.002C532.755 845.969 525.306 854.879 517.752 859.275C517.544 859.104 517.391 858.7 517.248 858.418C525.648 853.112 530.385 845.298 532.936 835.932Z"/>
<path class="c-shadow" d="M449.927 902.879C450.608 904.395 449.793 906.604 449.161 908.063C446.587 914.006 440.795 917.314 435.178 919.577C435.416 917.66 444.502 912.667 446.559 909.592C448.499 906.691 448.612 906.216 449.927 902.879Z"/>
<path class="c-dark" fill-opacity="0.94901961" d="M521.323 832.824L522.028 833.967C520.859 839.888 517.256 844.85 512.902 848.886L512.409 848.272C517.891 841.266 517.783 841.303 521.323 832.824Z"/>
<path class="c-dark" fill-opacity="0.9254902" d="M484.138 874.267L484.401 875.47C483.533 879.717 478.302 885.91 474.73 888.321C474.619 886.859 482.042 878.115 484.138 874.267Z"/>
<path class="c-shadow" fill-opacity="0.98431373" d="M583.022 825.568L583.511 826.417C583.666 832.778 579.084 836.335 573.866 838.826L573.546 838.499C573.894 836.74 577.487 836.209 579.144 834.072C581.161 831.47 581.955 828.635 583.022 825.568Z"/>
<path class="c-mid" fill-opacity="0.85882354" d="M392.57 832.949C398.529 836.285 400.638 836.71 406.874 838.975C402.219 839.496 395.238 836.912 392.57 832.949Z"/>
<path class="c-paper" fill-opacity="0.011764706" d="M550.159 844.429C543.776 825.555 503.136 799.888 488.321 786.251L488.831 785.902C512.897 801.491 534.251 815.254 552.07 837.788C552.677 840.654 551.708 842.059 550.159 844.429Z"/>
<path class="c-paper" fill-opacity="0.10196079" d="M414.777 870.508C419.044 872.848 421.888 874.313 425.76 877.302C421.828 875.579 417.877 873.936 414.125 871.848L414.777 870.508Z"/>
<path class="c-dark" d="M407.125 601.396C424.783 602.051 442.391 602.263 460.031 603.417C461.222 604.316 461.763 604.634 463.16 605.149L463.425 606.219L465.34 609.027L465.095 609.515C463.317 607.877 460.561 605.101 457.907 606.02L459.27 608.405L458.544 608.655C457.749 607.772 456.183 605.912 455.034 605.802C449.2 605.241 442.648 605.208 436.811 605.04C426.365 604.731 415.927 604.198 405.503 603.442C407.044 602.504 406.503 603.149 407.125 601.396Z"/>
<path class="c-dark" d="M552.07 837.788L553.17 838.15C553.727 839.714 553.795 840.477 555.228 841.385L555.255 842.039C554.28 844.117 553.488 846.122 552.061 847.905C551.039 847.478 551.166 847.421 550.285 846.658L550.159 844.429C551.708 842.059 552.677 840.654 552.07 837.788Z"/>
<path class="c-dark" d="M441.067 827.354C439.072 827.223 438.136 827.325 436.405 826.371L437.014 825.747C440.407 825.267 444.144 825.019 447.431 826.223L447.108 827.06C443.797 826.835 443.032 825.958 441.067 827.354Z"/>
<path class="c-dark" d="M129.828 796.579C134.102 795.543 138.615 796.518 142.08 799.225C145.545 801.933 147.582 806.075 147.61 810.472C147.653 817.278 142.92 823.184 136.266 824.626C128.564 826.294 120.952 821.46 119.189 813.781C117.427 806.102 122.169 798.434 129.828 796.579ZM134.411 821.848C140.484 821.192 144.909 815.79 144.357 809.708C143.804 803.627 138.477 799.111 132.385 799.559C128.351 799.857 124.791 802.306 123.073 805.967C121.355 809.628 121.746 813.931 124.096 817.223C126.446 820.514 130.389 822.282 134.411 821.848Z"/>
<path class="c-dark" fill-opacity="0.91764706" d="M227.959 742.537C230.958 748.42 212.734 791.558 208.012 798.396C207.968 795.376 213.724 784.658 215.117 781.045C219.604 769.401 225.304 754.545 227.959 742.537Z"/>
<path class="c-mid" fill-opacity="0.90196079" d="M246.373 657.183C246.302 664.845 245.032 679.115 242.604 686.046C242.436 682.454 244.817 668.552 245.217 663.447C245.988 653.588 245.118 645.456 245.44 636.183C246.271 638.543 246.212 640.286 246.339 642.77C246.221 647.798 246.2 652.156 246.373 657.183Z"/>
<path class="c-dark" fill-opacity="0.95686275" d="M163.45 828.88C174.768 826.901 177 825.2 187.481 821.131C181.306 825.74 171.589 829.103 164.026 830.331L163.45 828.88Z"/>
<path class="c-mid" fill-opacity="0.92941177" d="M234.261 718.865L234.973 719.977C234.528 725.717 231.823 733.265 229.938 738.763L229.293 738.558C229.131 736.665 233.452 721.901 234.261 718.865Z"/>
<path class="c-mid-light" fill-opacity="0.86666667" d="M164.026 830.331C158.887 830.751 154.634 830.789 149.492 830.259C153.564 829.341 158.792 829.488 163.45 828.88L164.026 830.331Z"/>
<path class="c-mid" fill-opacity="0.90196079" d="M128.843 667.712L129.445 668.528C129.642 671.14 128.373 674.63 127.603 677.243L126.865 676.703C126.888 674.312 128.174 670.195 128.843 667.712Z"/>
<path class="c-mid-light" fill-opacity="0.3137255" d="M246.339 642.77C247.054 647.211 247.229 652.756 246.373 657.183C246.2 652.156 246.221 647.798 246.339 642.77Z"/>
<path class="c-shadow" fill-opacity="0.97647059" d="M335.112 879.473C335.538 881.411 334.782 883.933 335.812 887.139C338.097 894.254 348.609 894.522 351.504 897.853L351.259 899.029C349.448 900.994 347.161 901.721 344.69 902.771C328.864 905.136 320.552 888.216 335.112 879.473ZM346.728 900.497L349.442 899.015L349.432 898.147C344.047 894.56 336.631 896.593 334.353 886.9C334.013 885.456 333.991 882.55 333.14 881.652C324.99 892.642 333.355 903.681 345.297 900.863C345.776 900.75 346.253 900.628 346.728 900.497Z"/>
<path class="c-dark" fill-opacity="0.9254902" d="M367.764 897.258C370.899 899.21 369.153 903.277 372.523 906.014C375.082 908.093 380.333 907.643 382.55 910.053C381.687 911.823 381.027 911.858 379.24 913.071C368.01 916.112 361.018 905.471 367.764 897.258ZM379.526 911.31L380.014 910.373C370.985 906.014 371.64 910.839 367.64 899.139C364.263 908.023 370.445 914.498 379.526 911.31Z"/>
<path class="c-shadow" fill-opacity="0.97254902" d="M293.205 864.623C296.674 874.77 298.041 876.771 308.324 881.2C310.436 882.11 311.97 882.715 313.606 884.387C306.896 889.534 299.489 890.738 292.733 884.871C285.166 877.105 287.086 872.175 293.205 864.623ZM306.308 886.402L309.55 884.776L309.75 884.113C299.821 879.07 296.975 878.72 292.162 868.147C283.929 878.086 295.071 890.192 306.308 886.402Z"/><defs><linearGradient id="gradient_0" gradientUnits="userSpaceOnUse" x1="686.27216" y1="776.99786" x2="647.34534" y2="778.07483"><stop offset="0" stop-color="#EDEBE9" stop-opacity="0"/><stop offset="1" stop-color="#E3DEDB" stop-opacity="0.047058824"/></linearGradient></defs>
<path fill="url(#gradient_0)" d="M683.816 754.855L684.234 758.744C684.989 758.15 685.008 758.052 685.58 757.268C686.62 759.016 686.106 760.371 686.319 762.438C686.371 772.811 681.083 789.835 673.759 796.965C661.706 804.791 650.546 784.573 646.428 775.596L647.147 774.831C648.644 775.766 651.876 782.555 653.215 784.486C676.464 818.033 682.188 771.814 683.816 754.855Z"/>
<path class="c-dark" fill-opacity="0.94117647" d="M77.4844 816.854C83.6371 800.478 91.0758 783.742 97.4853 767.283C104.749 748.458 111.33 729.376 117.217 710.076C118.133 707.152 124.442 684.242 124.99 683.777C125.238 689.131 123.656 692.062 122.321 697.086C112.474 734.146 98.3646 769.502 83.9434 804.961C82.1914 809.268 80.3409 813.402 78.1757 817.518L77.4844 816.854Z"/>
<path class="c-shadow" fill-opacity="0.97647059" d="M351.891 674.571C371.641 677.834 353.572 696.942 345.639 702.273C341.718 704.908 328.982 703.481 324.257 702.365C324.55 701.076 324.449 701.525 325.371 700.378C326.267 700.602 327.167 700.812 328.07 701.009C332.15 701.896 341.569 703.609 344.659 701.142C348.854 697.792 358.833 687.083 359.833 682.066C357.99 677.8 351.652 676.477 347.507 675.917L347.596 675.465C348.663 674.415 350.034 674.695 351.891 674.571Z"/>
<path class="c-shadow" fill-opacity="0.94509804" d="M614.695 780.433C622.297 763.029 620.112 748.843 613.74 731.513C613.095 729.757 611.075 724.959 611.756 723.449C621.012 738.085 623.531 766.183 616.496 781.807L614.695 780.433Z"/>
<path class="c-shadow" fill-opacity="0.96862745" d="M687.02 757.797C687.724 755.268 687.797 747.139 687.901 744.021C688.052 747.986 688.166 751.953 688.243 755.92C687.653 768.194 685.117 789.755 675.529 798.193L673.759 796.965C681.083 789.835 686.371 772.811 686.319 762.438L687.02 757.797Z"/>
<path class="c-dark" fill-opacity="0.98431373" d="M520.43 733.207C537.296 737.478 546.675 736.97 562.832 729.349C562.695 731.483 560.619 732.763 558.73 733.429C547.876 737.249 536.979 738.667 525.62 736.681C523.374 736.282 521.135 735.844 518.904 735.368L518.909 733.881L520.43 733.207Z"/>
<path class="c-dark" fill-opacity="0.90980393" d="M686.937 737.909C685.483 721.655 683.382 707.724 679.261 691.838C678.348 688.32 674.217 677.4 674.035 675.652L674.505 675.209C681.624 686.956 687.837 726.737 688.402 741.159C688.162 741.76 688.349 741.453 687.748 742.016L686.937 737.909Z"/>
<path class="c-paper" fill-opacity="0.011764706" d="M313.606 884.387L314.129 885.743C309.296 889.82 302.374 892.674 295.998 892.063C294.505 891.917 293.059 891.462 291.751 890.728C291.318 888.672 291.175 887.299 291.133 885.213L292.733 884.871C299.489 890.738 306.896 889.534 313.606 884.387Z"/>
<path class="c-mid" fill-opacity="0.93333334" d="M137.157 600.267L138.997 600.62C140.544 607.748 136.419 643.573 133.635 650.673C132.5 645.646 136.902 627.848 137.355 621.341C137.913 613.32 137.888 608.333 137.157 600.267Z"/>
<path class="c-mid" fill-opacity="0.8392157" d="M644.317 621.45C647.841 624.781 652.664 629.665 655.22 633.59C658.945 639.312 671.477 661.249 671.103 666.61C670.111 666.13 669.149 663.007 668.649 661.813C662.611 647.391 655.137 632.558 643.087 622.211L644.317 621.45Z"/>
<path class="c-dark" fill-opacity="0.96078432" d="M534.369 743.77C541.422 744.311 544.988 743.993 551.954 742.355C554.62 741.729 560.528 739.764 562.882 739.891C553.931 744.738 543.527 746.358 533.449 745.384C533.662 744.732 533.98 744.373 534.369 743.77Z"/>
<path class="c-shadow" d="M463.367 673.255L464.485 674.639C459.474 676.219 454.749 677.935 449.437 677.449C448.166 676.905 447.561 676.704 446.229 676.303L445.695 675.103C452.98 675.433 456.398 674.752 463.367 673.255Z"/>
<path class="c-shadow" fill-opacity="0.98823529" d="M448.511 679.398L449.473 678.242C453.37 681.576 461.251 688.01 464.493 691.453C463.123 691.585 462.76 691.239 461.552 690.579L461.135 690.346L460.645 690.754C459.036 688.719 450.744 682.072 448.378 680.199L448.511 679.398Z"/>
<path class="c-shadow" fill-opacity="0.98431373" d="M438.283 669.86C445.086 665.635 446.583 663.195 449.99 656.066L450.545 656.299C450.623 659.134 448.116 662.956 446.589 665.375C443.603 668.554 442.604 669.645 439.057 672.087L438.283 669.86Z"/><defs><linearGradient id="gradient_1" gradientUnits="userSpaceOnUse" x1="452.51389" y1="683.21796" x2="451.28918" y2="685.68115"><stop offset="0" stop-color="#E8E3E1" stop-opacity="0"/><stop offset="1" stop-color="#E2DEDD" stop-opacity="0.070588239"/></linearGradient></defs>
<path fill="url(#gradient_1)" d="M448.378 680.199C450.744 682.072 459.036 688.719 460.645 690.754C459.721 690.428 450.544 685.592 448.476 684.605C447.612 683.03 447.461 682.89 447.239 681.148L448.378 680.199Z"/><defs><linearGradient id="gradient_2" gradientUnits="userSpaceOnUse" x1="447.58624" y1="668.15411" x2="446.52719" y2="666.58496"><stop offset="0" stop-color="#E7E3E4" stop-opacity="0"/><stop offset="1" stop-color="#E5E1E0" stop-opacity="0.035294119"/></linearGradient></defs>
<path fill="url(#gradient_2)" d="M446.589 665.375L448.371 666.168C449.757 665.464 450.838 664.901 452.285 664.337C450.98 665.771 448.862 667.931 447.872 669.495L444.826 671.195C443.153 671.498 440.675 672.049 439.057 672.087C442.604 669.645 443.603 668.554 446.589 665.375Z"/>
<path class="c-paper" fill-opacity="0.05882353" d="M624.948 622.898L626.074 624.459C623.077 627.924 622.51 630.803 619.872 634.539L619.554 633.922C620.42 628.797 621.936 627.209 624.948 622.898Z"/>
<path class="c-mid-light" fill-opacity="0.45882353" d="M686.937 737.909L687.748 742.016C688.349 741.453 688.162 741.76 688.402 741.159C689.039 744.239 688.94 752.97 688.243 755.92C688.166 751.953 688.052 747.986 687.901 744.021C687.797 747.139 687.724 755.268 687.02 757.797L686.937 737.909Z"/>
<path class="c-shadow" fill-opacity="0.95686275" d="M447.872 669.495C449.651 668.342 453.718 664.862 454.695 664.573C451.961 668.415 449.535 670.557 445.811 673.404L444.826 671.195L447.872 669.495Z"/>
<path class="c-mid" fill-opacity="0.84705883" d="M463.367 673.255C467.683 672.105 472.303 668.379 475.062 667.836C471.852 671.082 468.798 672.997 464.485 674.639L463.367 673.255Z"/>
<path class="c-dark" fill-opacity="0.92941177" d="M564.985 648.261C568.099 649.693 571.462 652.83 574.157 655.105C570.089 653.185 566.538 651.182 562.621 648.993L564.985 648.261Z"/>
<path class="c-mid-light" fill-opacity="0.92156863" d="M130.575 660.3C130.984 656.099 130.928 654.04 133.635 650.673C133.219 653.897 132.759 657.808 130.575 660.3Z"/>
<path class="c-shadow" fill-opacity="0.98431373" d="M42.586 569.696C44.2742 569.863 44.6947 570.049 46.2193 570.702C76.4202 583.63 87.376 604.16 98.8415 633.39C96.3091 632.16 84.1214 604.685 78.7471 597.818C66.7147 582.443 56.9507 580.11 43.0227 570.018L42.586 569.696Z"/>
<path class="c-mid" fill-opacity="0.85490197" d="M44.2081 610.869C46.2458 613.744 54.499 640.584 56.7903 646.716C52.6351 644.176 44.5944 615.972 44.2081 610.869Z"/><defs><linearGradient id="gradient_3" gradientUnits="userSpaceOnUse" x1="841.65326" y1="703.35297" x2="667.33655" y2="653.80927"><stop offset="0" stop-color="#343132"/><stop offset="1" stop-color="#525152"/></linearGradient></defs>
<path fill="url(#gradient_3)" d="M707.954 615.807C725.708 610.212 743.948 605.149 761.783 599.64C785.37 592.414 808.782 584.631 832 576.298L832 579.119C791.627 593.894 751.356 605.951 710.162 618.216C737.875 648.948 752.153 706.644 750.067 747.124C749.947 749.4 749.809 751.676 749.653 753.95C772.936 750.592 796.708 748.617 820.075 745.711C823.929 745.232 828.129 744.814 832 744.583L832 747.137C806.485 749.786 774.361 753.174 749.257 756.998C747.087 773.737 740.511 794.686 719.344 792.004C708.721 790.658 702.195 780.504 697.958 771.635C698.543 770.746 698.965 769.953 699.469 769.025C703.861 777.469 708.48 785.2 718.019 788.236C718.618 788.425 719.219 788.608 719.822 788.784L724.154 786.545L726.136 787.807L726.166 788.01C729.214 790.247 736.752 784.228 738.403 781.377C749.862 761.589 749.018 732.784 745.31 710.931C739.443 676.356 727.536 635.535 699.644 612.118C693.93 607.492 688.14 606.962 681.305 608.143L680.644 608.215C681.106 606.964 681.377 606.35 681.966 605.149C692.297 602.115 701.132 608.817 707.954 615.807Z"/>
<path class="c-dark" d="M0 538.335L0.464631 538.787C4.91821 543.174 9.94342 551.416 15.2234 554.239C21.343 556.481 30.3847 556.377 36.6984 557.162C51.5605 559.009 68.2722 561.283 81.2557 569.129C87.1752 572.706 89.396 580.949 95.6605 585.777L93.0645 587.203L93.3403 587.909L93.8745 588.126C95.943 593.439 103.013 611.14 103.731 615.607C101.689 612.72 100.813 609.43 99.298 606.292C92.9314 593.107 89.2188 574.837 74.4296 568.461C57.5207 561.17 38.408 560.323 20.3563 558.379C11.342 557.408 5.0414 548.838 0 542.227L0 538.335Z"/>
<path class="c-dark" fill-opacity="0.93725491" d="M731.165 775.808C743.454 753.46 735.282 703.908 728.491 680.639C726.998 675.524 722.333 665.767 722.033 661.154L722.501 661.028C736.698 690.36 748.934 760.233 726.136 787.807L724.154 786.545C727.995 782.992 729.06 780.625 731.165 775.808Z"/>
<path class="c-paper" fill-opacity="0.019607844" d="M699.469 769.025C699.022 767.596 698.472 766.537 698.905 765.164C704.156 770.316 707.113 784.952 717.787 784.996C724.321 785.023 727.55 777.991 729.865 773.067L730.75 774.609L730.102 775.485L731.165 775.808C729.06 780.625 727.995 782.992 724.154 786.545L719.822 788.784C719.219 788.608 718.618 788.425 718.019 788.236C708.48 785.2 703.861 777.469 699.469 769.025Z"/>
<path class="c-dark" d="M681.966 605.149C681.377 606.35 681.106 606.964 680.644 608.215L681.305 608.143C685.981 609.861 687.682 610.562 691.401 613.864L690.362 614.407C685.545 611.008 682.48 608.74 676.406 610.729C671.562 613.266 667.929 617.626 666.308 622.846C665.881 624.203 665.607 625.519 665.594 626.942L665.073 627.505C663.77 627.691 663.147 627.434 661.885 627.121L661.7 625.78L662.38 625.51C665.584 615.23 671.348 608.115 681.966 605.149Z"/>
<path class="c-paper" fill-opacity="0.039215688" d="M665.594 626.942C665.607 625.519 665.881 624.203 666.308 622.846C667.929 617.626 671.562 613.266 676.406 610.729C677.841 610.922 679.274 611.131 680.704 611.357C680.283 612.574 680.635 612.057 679.492 612.864C669.414 614.281 670.301 620.679 665.594 626.942Z"/>
<path class="c-mid-light" fill-opacity="0.8509804" d="M691.401 613.864C698.466 619.419 709.135 632.485 712.47 640.715L711.877 640.802C703.823 628.538 701.51 624.126 690.362 614.407L691.401 613.864Z"/>
</svg>