<svg width="122" height="117" viewBox="0 0 122 117" fill="none" xmlns="http://www.w3.org/2000/svg">
<path d="M0 22.5C0 16.9772 4.47715 12.5 10 12.5H27C27.5523 12.5 28 12.9477 28 13.5V106.5C28 112.023 23.5228 116.5 18 116.5H10C4.47715 116.5 0 112.023 0 106.5V22.5Z" fill="url(#paint0_linear_121_86)"/>
<path d="M94 13.5C94 12.9477 94.4477 12.5 95 12.5H112C117.523 12.5 122 16.9772 122 22.5V106.5C122 112.023 117.523 116.5 112 116.5H104C98.4772 116.5 94 112.023 94 106.5V13.5Z" fill="url(#paint1_linear_121_86)"/>
<path d="M25.8936 0C28.8813 0 34.359 2.00006 37.8447 9C41.0999 15.5369 58.6856 48.672 60.998 53.0273C63.2967 48.6426 80.8986 15.073 84.1553 9C87.641 2.50005 93.1187 0 96.1064 0H113.037C119.411 0.000235206 121.668 6.00006 122 9V36.5C115.228 25.3001 105.236 33.1667 101.086 38.5C96.9363 43.8333 71.7061 91 71.7061 91C69.0068 96.0333 63.6017 97.1006 61 97.0127C58.3983 97.1006 52.9932 96.0333 50.2939 91C50.2939 91 25.0637 43.8333 20.9141 38.5C16.7644 33.1667 6.7722 25.3001 0 36.5V9C0.331966 6.00006 2.5893 0.000235206 8.96289 0H25.8936Z" fill="url(#paint2_linear_121_86)"/>
<defs>
<linearGradient id="paint0_linear_121_86" x1="14" y1="12.5" x2="14" y2="116.5" gradientUnits="userSpaceOnUse">
<stop stop-color="#9D48C2"/>
<stop offset="1" stop-color="#C78FDF"/>
</linearGradient>
<linearGradient id="paint1_linear_121_86" x1="108" y1="12.5" x2="108" y2="116.5" gradientUnits="userSpaceOnUse">
<stop stop-color="#7C27A0"/>
<stop offset="1" stop-color="#9538BD"/>
</linearGradient>
<linearGradient id="paint2_linear_121_86" x1="122" y1="48.5088" x2="0" y2="48.5088" gradientUnits="userSpaceOnUse">
<stop stop-color="#9D3AC8"/>
<stop offset="1" stop-color="#C790DE"/>
</linearGradient>
</defs>
</svg>
